<?xml version="1.0" standalone="no"?>
<!DOCTYPE svg PUBLIC "-//W3C//DTD SVG 20010904//EN"
 "http://www.w3.org/TR/2001/REC-SVG-20010904/DTD/svg10.dtd">
<svg version="1.0" xmlns="http://www.w3.org/2000/svg"
 width="704.000000pt" height="704.000000pt" viewBox="0 0 704.000000 704.000000"
 preserveAspectRatio="xMidYMid meet">
<metadata>
Created by potrace 1.11, written by Peter Selinger 2001-2013
</metadata>
<g transform="translate(0.000000,704.000000) scale(0.100000,-0.100000)"
fill="#000000" stroke="none">
<path d="M518 5605 c-2 -2 -23 -4 -48 -6 -25 -1 -54 -7 -65 -12 -27 -13 -64
-56 -71 -81 -2 -12 -3 -277 -2 -591 3 -552 4 -571 23 -597 42 -55 11 -53 688
-54 l627 -1 0 613 c0 337 -4 623 -9 636 -17 44 -60 76 -114 85 -29 5 -53 6
-54 3 -2 -3 -24 -4 -50 -2 -27 1 -54 3 -60 2 -20 0 -42 0 -55 1 -17 1 -107 0
-133 -1 -11 -1 -27 -1 -35 0 -8 0 -24 0 -35 0 -11 -1 -26 -1 -32 -1 -13 1 -32
1 -58 1 -45 -1 -133 -1 -150 0 -22 1 -19 1 -91 -1 -28 -1 -55 1 -60 4 -6 3
-16 2 -24 -3 -7 -4 -24 -4 -36 0 -14 6 -26 5 -29 0 -3 -5 -18 -5 -35 0 -17 5
-30 5 -30 0 0 -5 -13 -5 -29 0 -16 4 -31 7 -33 5z"/>
<path d="M1838 5602 c-16 -2 -28 -6 -29 -10 0 -4 -2 -232 -3 -507 -1 -503 0
-532 35 -610 15 -34 65 -101 94 -127 25 -23 122 -71 155 -78 14 -3 194 -5 400
-5 l375 0 66 32 c107 53 179 140 203 245 8 37 11 161 10 403 -2 345 -3 366
-22 415 -5 14 -11 30 -12 35 -3 13 -59 85 -85 109 -32 29 -95 67 -129 78 -28
8 -122 20 -153 19 -7 -1 -20 -1 -28 -1 -8 0 -22 0 -30 0 -8 0 -21 0 -27 -1 -7
0 -33 0 -58 0 -25 0 -52 0 -60 0 -8 0 -28 0 -45 0 -61 1 -70 1 -90 1 -11 -1
-26 -1 -32 -1 -13 1 -32 1 -58 1 -45 -1 -133 -1 -150 0 -22 1 -19 1 -91 -1
-28 -1 -55 1 -60 4 -6 3 -16 2 -24 -3 -7 -4 -23 -5 -34 0 -12 4 -30 4 -41 0
-11 -4 -27 -5 -35 -1 -8 4 -27 5 -42 3z"/>
<path d="M4160 5603 c0 -4 -35 -7 -77 -7 -80 2 -197 -22 -263 -52 -65 -31
-160 -105 -210 -165 -46 -55 -110 -174 -110 -203 0 -7 -3 -16 -7 -20 -13 -13
-15 -57 -20 -473 l-4 -423 206 0 c113 1 210 -2 215 -5 5 -3 11 -1 14 3 3 5 18
8 33 6 26 -3 426 -6 448 -4 6 1 74 1 153 0 187 -2 234 14 259 86 7 19 11 237
11 589 0 548 0 561 -20 597 -29 51 -70 65 -185 64 -51 -1 -93 1 -93 4 0 3 -13
5 -30 5 -16 0 -30 -2 -30 -5 0 -8 -266 -4 -279 4 -6 4 -11 4 -11 -1z"/>
<path d="M4992 5603 c-10 -4 -12 -112 -12 -514 1 -464 2 -515 19 -568 29 -92
101 -177 187 -220 65 -33 73 -34 294 -37 113 -2 234 -4 270 -4 36 -1 70 -1 75
0 6 1 49 2 96 2 199 0 336 98 387 278 11 36 11 44 11 108 0 67 1 116 4 180 1
34 0 62 -3 62 -3 0 -4 24 -2 52 5 105 4 156 -2 167 -4 6 -2 11 4 11 6 0 8 5 4
11 -3 6 -6 43 -6 82 1 73 -21 169 -45 198 -7 8 -13 19 -13 23 0 3 -21 28 -47
55 -84 86 -174 114 -355 111 -10 0 -29 0 -43 0 -14 0 -40 -1 -57 -1 -18 0 -46
0 -63 0 -61 1 -70 1 -90 1 -11 -1 -26 -1 -32 -1 -13 1 -32 1 -58 1 -45 -1
-133 -1 -150 0 -22 1 -19 1 -91 -1 -28 -1 -55 1 -60 4 -6 3 -16 2 -24 -3 -7
-4 -24 -4 -36 0 -14 6 -26 5 -29 0 -3 -5 -18 -5 -35 0 -17 5 -32 5 -35 0 -3
-5 -16 -6 -28 -1 -12 4 -28 6 -35 4z"/>
<path d="M3775 4120 c-190 -4 -224 -7 -247 -23 -59 -40 -58 -27 -58 -699 l0
-615 615 0 c582 0 618 1 654 19 70 34 68 17 69 643 1 400 -2 569 -10 590 -16
40 -54 72 -95 80 -44 8 -647 11 -928 5z"/>
<path d="M495 4086 c-82 -31 -134 -83 -155 -157 -6 -20 -10 -262 -10 -601 l0
-568 23 -1 c12 -1 26 -1 31 0 5 1 98 2 205 1 108 -1 203 -1 211 -1 8 0 35 0
60 0 25 0 52 0 60 0 8 0 67 0 130 0 63 -1 122 -1 130 -1 8 1 97 1 198 1 200 1
229 7 267 59 19 26 20 43 20 614 l0 586 -25 27 c-50 54 -37 53 -595 52 -358 0
-529 -3 -550 -11z"/>
<path d="M3470 2595 c-2 -321 1 -755 5 -775 3 -14 7 -37 10 -52 15 -81 82
-203 151 -275 86 -90 224 -162 339 -179 79 -11 717 -11 745 0 31 12 68 48 79
78 5 13 9 275 9 583 0 616 2 603 -61 647 l-31 22 -623 1 -623 0 0 -50z"/>
<path d="M5138 2607 c-56 -18 -118 -74 -144 -132 l-24 -50 0 -463 c0 -305 4
-478 11 -507 14 -54 68 -119 123 -147 31 -16 62 -22 133 -23 50 -2 95 -5 101
-9 5 -3 12 -3 16 1 9 9 217 10 223 0 2 -4 9 -4 15 -1 6 4 40 8 77 9 254 7 480
163 585 403 15 34 29 73 32 85 2 12 7 33 10 47 3 14 8 63 9 110 9 196 -69 379
-217 514 -55 50 -170 123 -208 132 -3 0 -12 3 -20 6 -77 28 -111 31 -390 34
-208 2 -306 -1 -332 -9z"/>
<path d="M787 2604 c-3 -3 -107 -6 -231 -6 l-226 0 0 -616 c0 -691 -2 -667 71
-704 39 -20 -12 -19 977 -18 l293 0 -3 628 c-3 609 -4 628 -23 654 -41 55 -48
56 -457 55 -206 0 -380 3 -385 6 -6 4 -13 4 -16 1z"/>
</g>
</svg>
