<?xml version="1.0" encoding="utf-8"?>
<!-- Generator: Adobe Illustrator 23.0.2, SVG Export Plug-In . SVG Version: 6.00 Build 0)  -->
<svg version="1.1" id="Layer_1" xmlns="http://www.w3.org/2000/svg" xmlns:xlink="http://www.w3.org/1999/xlink" x="0px" y="0px"
	 viewBox="0 0 44 34" style="enable-background:new 0 0 44 34;" xml:space="preserve">
<style type="text/css">
	.st0{fill:#CFE3FF;}
	.st1{fill:#F9F9F9;}
</style>
<g>
	<path class="st0" d="M13.6,12.37h3.76c1.27,0,2.3-1.03,2.3-2.3V6.3c0-1.27-1.03-2.3-2.3-2.3h-6.07v6.07
		C11.29,11.34,12.32,12.37,13.6,12.37z"/>
	<path class="st0" d="M33.44,12.37h3.76c1.27,0,2.3-1.03,2.3-2.3V6.3c0-1.27-1.03-2.3-2.3-2.3h-6.07v6.07
		C31.14,11.34,32.17,12.37,33.44,12.37z"/>
	<path class="st1" d="M2.89,31.13h7.54v-7.54c0-0.46-0.37-0.83-0.83-0.83H2.06v7.54C2.06,30.76,2.43,31.13,2.89,31.13z"/>
	<path class="st1" d="M2.06,21.75h7.54c0.46,0,0.83-0.37,0.83-0.83v-6.7c0-0.46-0.37-0.83-0.83-0.83H3.52
		c-0.81,0-1.46,0.65-1.46,1.46V21.75z"/>
	<path class="st1" d="M9.59,4h-6.7C2.43,4,2.06,4.37,2.06,4.83v6.7c0,0.46,0.37,0.83,0.83,0.83h7.54V4.83C10.43,4.37,10.05,4,9.59,4
		z"/>
	<path class="st1" d="M21.68,12.37h7.54c0.46,0,0.83-0.37,0.83-0.83v-6.7c0-0.46-0.37-0.83-0.83-0.83h-3.76
		c-2.08,0-3.77,1.69-3.77,3.77V12.37z"/>
	<path class="st1" d="M25.46,30.84h3.76c0.46,0,0.83-0.37,0.83-0.83v-6.7c0-0.46-0.37-0.83-0.83-0.83h-7.54v4.6
		C21.68,29.15,23.37,30.84,25.46,30.84z"/>
	<path class="st1" d="M21.68,21.61h7.54c0.46,0,0.83-0.37,0.83-0.83v-6.7c0-0.46-0.37-0.83-0.83-0.83h-6.7
		c-0.46,0-0.83,0.37-0.83,0.83V21.61z"/>
	<path class="st1" d="M32.58,30.99h2.67c2.31,0,4.18-1.87,4.18-4.18v0c0-2.31-1.87-4.18-4.18-4.18h-2.67
		c-0.84,0-1.52,0.68-1.52,1.52v5.34C31.06,30.31,31.74,30.99,32.58,30.99z"/>
</g>
</svg>
